<?xml version="1.0" encoding="UTF-8"?>
<svg version="1.1" xmlns="http://www.w3.org/2000/svg" width="850" height="478">
<path d="M0 0 C280.5 0 561 0 850 0 C850 157.74 850 315.48 850 478 C569.5 478 289 478 0 478 C0 320.26 0 162.52 0 0 Z " fill="#050505" transform="translate(0,0)"/>
<path d="M0 0 C1.01771484 0.28617188 2.03542969 0.57234375 3.08398438 0.8671875 C5.57922803 1.57007304 8.07180857 2.28118206 10.5625 3 C10.5625 3.66 10.5625 4.32 10.5625 5 C2.3125 5 -5.9375 5 -14.4375 5 C-14.4375 5.66 -14.4375 6.32 -14.4375 7 C-12.77980591 6.98428955 -12.77980591 6.98428955 -11.08862305 6.96826172 C-6.99051144 6.93207593 -2.89241397 6.90910471 1.20581055 6.89013672 C2.97992324 6.88007589 4.75401935 6.86642578 6.52807617 6.84912109 C9.07735284 6.82487622 11.62641037 6.81351782 14.17578125 6.8046875 C14.96962723 6.79436493 15.76347321 6.78404236 16.58137512 6.77340698 C20.44473043 6.7726189 22.27089446 6.80559631 25.5625 9 C22.62747405 10.00736628 19.68910539 11.00460504 16.75 12 C15.91662109 12.28617188 15.08324219 12.57234375 14.22460938 12.8671875 C13.42216797 13.13789063 12.61972656 13.40859375 11.79296875 13.6875 C11.05457764 13.93886719 10.31618652 14.19023437 9.55541992 14.44921875 C7.5625 15 7.5625 15 4.5625 15 C4.5625 15.66 4.5625 16.32 4.5625 17 C1.75826114 18.07087439 -1.05189407 19.10610125 -3.875 20.125 C-4.65810547 20.42792969 -5.44121094 20.73085937 -6.24804688 21.04296875 C-12.29999694 23.18481116 -16.3822752 23.00852875 -22.4375 21 C-23.10338135 20.78714355 -23.7692627 20.57428711 -24.45532227 20.35498047 C-26.31631491 19.73189396 -28.15877733 19.05428603 -30 18.375 C-31.82724609 17.70597656 -31.82724609 17.70597656 -33.69140625 17.0234375 C-34.59761719 16.68570313 -35.50382812 16.34796875 -36.4375 16 C-36.4375 15.34 -36.4375 14.68 -36.4375 14 C-37.365625 13.9175 -38.29375 13.835 -39.25 13.75 C-44.56284498 13.01757075 -49.46528798 10.93313849 -54.4375 9 C-49.55220435 6.4502185 -44.98592611 5 -39.4375 5 C-39.4375 4.34 -39.4375 3.68 -39.4375 3 C-36.08784883 1.98443582 -32.73216389 0.99041911 -29.375 0 C-27.96057617 -0.42925781 -27.96057617 -0.42925781 -26.51757812 -0.8671875 C-16.67847992 -3.74692356 -9.73443271 -2.81202871 0 0 Z " fill="#00E1EC" transform="translate(328.4375,214)"/>
<path d="M0 0 C1.98 0 3.96 0 6 0 C6 4.29 6 8.58 6 13 C6.99 12.34 7.98 11.68 9 11 C14.25726651 9.78678465 17.99738906 9.92344452 23 12 C27.6851168 16.80840935 28.35144731 21.0067919 28.28515625 27.484375 C27.86606354 31.18157645 26.49537378 33.29667841 24 36 C21.75 36.875 21.75 36.875 20 37 C20 37.66 20 38.32 20 39 C15.60993163 40.07511878 12.95377757 40.3257941 9.0625 38.0625 C8.051875 37.381875 7.04125 36.70125 6 36 C6 36.66 6 37.32 6 38 C3.69 38 1.38 38 -1 38 C-1.02464928 32.74894558 -1.04283568 27.49792455 -1.05493164 22.24682617 C-1.05997218 20.45905979 -1.06680454 18.67129755 -1.07543945 16.88354492 C-1.0875173 14.31948832 -1.09323094 11.75548603 -1.09765625 9.19140625 C-1.10281754 8.3872377 -1.10797882 7.58306915 -1.11329651 6.75453186 C-1.11349215 4.83598285 -1.06201983 2.91754632 -1 1 C-0.67 0.67 -0.34 0.34 0 0 Z " fill="#F6F6F6" transform="translate(546,204)"/>
<path d="M0 0 C2.97 0 5.94 0 9 0 C9.0246501 5.10863896 9.04283607 10.21724359 9.05493164 15.32592773 C9.05997204 17.06519168 9.0668043 18.80445136 9.07543945 20.54370117 C9.08751792 23.03825937 9.09323108 25.53276173 9.09765625 28.02734375 C9.10281754 28.80963852 9.10797882 29.59193329 9.11329651 30.39793396 C9.11349226 32.26567114 9.06199694 34.13329204 9 36 C8 37 8 37 6.15234375 37.09765625 C4.1015625 37.06510417 2.05078125 37.03255208 0 37 C0 32.38 0 27.76 0 23 C-5.28 23 -10.56 23 -16 23 C-16 27.62 -16 32.24 -16 37 C-18.64 37 -21.28 37 -24 37 C-24 25.12 -24 13.24 -24 1 C-21.36 1 -18.72 1 -16 1 C-16 5.95 -16 10.9 -16 16 C-10.72 16 -5.44 16 0 16 C0 10.72 0 5.44 0 0 Z " fill="#EBEBEB" transform="translate(395,206)"/>
<path d="M0 0 C4.54584087 0.49398529 8.38141959 1.4071559 12.69506836 3.01953125 C21.02624873 6.07392307 26.55077207 6.27422911 35 3 C36.66471312 2.43174454 38.3312383 1.8687539 40 1.3125 C40.680625 1.06113281 41.36125 0.80976563 42.0625 0.55078125 C44 0 44 0 48 0 C48.13547465 1.91470844 48.23220869 3.83218481 48.3125 5.75 C48.37050781 6.81734375 48.42851562 7.8846875 48.48828125 8.984375 C48 12 48 12 45.859375 14.28125 C35.25928796 20.65288702 21.1620022 20.09135449 9.421875 17.69921875 C5.92407738 16.68937073 3.74933364 15.38757921 1 13 C-0.00496852 9.98509443 -0.10335303 7.95818308 -0.0625 4.8125 C-0.05347656 3.91144531 -0.04445313 3.01039063 -0.03515625 2.08203125 C-0.02355469 1.39496094 -0.01195312 0.70789063 0 0 Z " fill="#00EDF6" transform="translate(290,233)"/>
<path d="M0 0 C2.88402885 2.35965997 4.34296678 3.81058547 5.75 7.25 C5.75 9.89 5.75 12.53 5.75 15.25 C-1.18 15.25 -8.11 15.25 -15.25 15.25 C-14.59 16.24 -13.93 17.23 -13.25 18.25 C-11.18093223 18.65223991 -11.18093223 18.65223991 -8.875 18.5 C-7.71871094 18.47679687 -7.71871094 18.47679687 -6.5390625 18.453125 C-4.25083027 18.31613562 -4.25083027 18.31613562 -2.1015625 17.67578125 C0.42193548 17.09548319 1.59489044 17.94154062 3.75 19.25 C3.09 20.57 2.43 21.89 1.75 23.25 C1.09 23.25 0.43 23.25 -0.25 23.25 C-0.25 23.91 -0.25 24.57 -0.25 25.25 C-5.44548425 27.45808081 -8.83264203 27.18402724 -14.25 26.25 C-14.25 25.59 -14.25 24.93 -14.25 24.25 C-14.848125 24.146875 -15.44625 24.04375 -16.0625 23.9375 C-18.56258286 23.15175967 -19.62535082 22.28081147 -21.25 20.25 C-21.25 19.59 -21.25 18.93 -21.25 18.25 C-21.91 18.25 -22.57 18.25 -23.25 18.25 C-23.25 14.29 -23.25 10.33 -23.25 6.25 C-22.59 6.25 -21.93 6.25 -21.25 6.25 C-20.981875 5.610625 -20.71375 4.97125 -20.4375 4.3125 C-19.25 2.25 -19.25 2.25 -16.25 1.25 C-16.25 0.59 -16.25 -0.07 -16.25 -0.75 C-10.16589291 -3.27267855 -5.82910115 -3.13874677 0 0 Z " fill="#F0F0F0" transform="translate(468.25,216.75)"/>
<path d="M0 0 C2.31 0 4.62 0 7 0 C8.26237731 2.52475462 8.09856404 4.31200466 8.0625 7.125 C8.05347656 8.03507813 8.04445313 8.94515625 8.03515625 9.8828125 C8.02355469 10.58148438 8.01195312 11.28015625 8 12 C9.19625 11.62875 10.3925 11.2575 11.625 10.875 C15.69928091 9.8798659 18.22611439 9.89364524 22 12 C25.60213159 17.31824145 25.35910121 22.20615647 25.1875 28.375 C25.16719727 29.76525391 25.16719727 29.76525391 25.14648438 31.18359375 C25.11133881 33.45633998 25.06214132 35.72785847 25 38 C22.69 38 20.38 38 18 38 C17.505 28.1 17.505 28.1 17 18 C14.69 18 12.38 18 10 18 C8.45429669 19.54570331 8.80175898 21.0693472 8.71875 23.21875 C8.68136719 24.06824219 8.64398438 24.91773438 8.60546875 25.79296875 C8.57066406 26.68628906 8.53585937 27.57960937 8.5 28.5 C8.43140557 30.26059038 8.35871048 32.02102741 8.28125 33.78125 C8.23581055 34.9578418 8.23581055 34.9578418 8.18945312 36.15820312 C8 38 8 38 7 39 C4.69 39 2.38 39 0 39 C0 26.13 0 13.26 0 0 Z " fill="#F3F3F3" transform="translate(480,204)"/>
<path d="M0 0 C2.97 0 5.94 0 9 0 C9.33 6.6 9.66 13.2 10 20 C11.32 20.33 12.64 20.66 14 21 C16.15176726 19.53073161 16.87880312 18.55862797 17.43237305 16.00708008 C17.47164917 14.89949341 17.47164917 14.89949341 17.51171875 13.76953125 C17.54716797 12.96708984 17.58261719 12.16464844 17.61914062 11.33789062 C17.64169922 10.50451172 17.66425781 9.67113281 17.6875 8.8125 C17.72166016 7.96751953 17.75582031 7.12253906 17.79101562 6.25195312 C17.87341471 4.16843351 17.93838645 2.08423784 18 0 C20.64 0 23.28 0 26 0 C26 9.24 26 18.48 26 28 C22.66666667 28 19.33333333 28 16 28 C15.2575 28.20625 14.515 28.4125 13.75 28.625 C10.1948155 29.10979789 8.24246156 28.51774796 5 27 C0.62365831 22.62365831 -0.03882835 18.77953417 -0.09765625 12.79296875 C-0.09106747 11.25778191 -0.07922794 9.72260984 -0.0625 8.1875 C-0.05573242 7.00510742 -0.05573242 7.00510742 -0.04882812 5.79882812 C-0.03711312 3.86585239 -0.01917998 1.93291607 0 0 Z " fill="#EAEAEA" transform="translate(512,215)"/>
<path d="M0 0 C2.64 0 5.28 0 8 0 C8.33 0.66 8.66 1.32 9 2 C9.66 1.34 10.32 0.68 11 0 C14.125 -0.125 14.125 -0.125 17 0 C17 2.31 17 4.62 17 7 C15.2984375 7.680625 15.2984375 7.680625 13.5625 8.375 C9.95278308 9.57095806 9.95278308 9.57095806 9 12 C8.7677354 14.71262116 8.58063765 17.40773126 8.4375 20.125 C8.39431641 20.87910156 8.35113281 21.63320312 8.30664062 22.41015625 C8.2005168 24.27321888 8.09974999 26.13658524 8 28 C5.36 28 2.72 28 0 28 C0 18.76 0 9.52 0 0 Z " fill="#EDEDED" transform="translate(426,215)"/>
<path d="M0 0 C2.31 0 4.62 0 7 0 C7 8.91 7 17.82 7 27 C4.69 27 2.38 27 0 27 C0 18.09 0 9.18 0 0 Z " fill="#FBFBFB" transform="translate(412,215)"/>
<path d="M0 0 C1.59492803 3.18985607 1.37616681 6.52932887 1 10 C-0.0625 12 -0.0625 12 -2 13 C-5.89504791 13.49573337 -8.09493717 13.58016848 -11.4375 11.4375 C-13.59460908 8.07240983 -13.56988508 5.91795996 -13 2 C-8.81363696 -2.33072039 -5.34768071 -2.20882464 0 0 Z " fill="#070707" transform="translate(565,223)"/>
<path d="M0 0 C0.99 0 1.98 0 3 0 C3.19676145 3.60372397 3.38081639 7.2079869 3.5625 10.8125 C3.61857422 11.83666016 3.67464844 12.86082031 3.73242188 13.91601562 C3.78076172 14.89892578 3.82910156 15.88183594 3.87890625 16.89453125 C3.94960327 18.25348511 3.94960327 18.25348511 4.02172852 19.63989258 C4 22 4 22 3 25 C3.35086245 27.49707512 3.35086245 27.49707512 4 30.125 C4.37471521 31.74095935 4.71874101 33.36518212 5 35 C4 36 4 36 0.9375 36.0625 C-0.031875 36.041875 -1.00125 36.02125 -2 36 C-1.93941406 34.99324219 -1.87882812 33.98648438 -1.81640625 32.94921875 C-1.16055406 21.96864313 -0.56676079 10.98551228 0 0 Z " fill="#00C8CA" transform="translate(348,227)"/>
<path d="M0 0 C-1.98 0.99 -1.98 0.99 -4 2 C-3.01 2.66 -2.02 3.32 -1 4 C-4.70168638 5.20894262 -8.41217276 6.38826247 -12.125 7.5625 C-13.17171875 7.90474609 -14.2184375 8.24699219 -15.296875 8.59960938 C-16.31523437 8.91865234 -17.33359375 9.23769531 -18.3828125 9.56640625 C-19.31496582 9.86490479 -20.24711914 10.16340332 -21.20751953 10.47094727 C-24.41598267 11.0788105 -26.83239787 10.70504693 -30 10 C-30 9.01 -30 8.02 -30 7 C-28.7625 6.9175 -27.525 6.835 -26.25 6.75 C-21.0837304 6.20057133 -16.4674646 4.60640511 -11.6015625 2.83984375 C-9 2 -9 2 -6 2 C-6 1.34 -6 0.68 -6 0 C-3 -1 -3 -1 0 0 Z " fill="#031517" transform="translate(339,229)"/>
<path d="M0 0 C2.31 0.33 4.62 0.66 7 1 C7.33 1.99 7.66 2.98 8 4 C6.875 6.1875 6.875 6.1875 5 8 C2.3125 8.25 2.3125 8.25 0 8 C0 5.36 0 2.72 0 0 Z " fill="#A7A7A7" transform="translate(513,260)"/>
<path d="M0 0 C2.375 -0.125 2.375 -0.125 5 0 C5.66 0.66 6.32 1.32 7 2 C6.625 5.125 6.625 5.125 6 8 C4.02 8 2.04 8 0 8 C0 5.36 0 2.72 0 0 Z " fill="#AEAEAE" transform="translate(449,260)"/>
<path d="M0 0 C1.32 0 2.64 0 4 0 C6 3 6 3 5.625 5.6875 C5.41875 6.450625 5.2125 7.21375 5 8 C2.625 8.125 2.625 8.125 0 8 C-0.66 7.34 -1.32 6.68 -2 6 C-1.64644564 3.73725212 -1.02455574 2.04911148 0 0 Z " fill="#F2F2F2" transform="translate(413,204)"/>
<path d="M0 0 C1.98 0 3.96 0 6 0 C6.38063221 2.3260857 6.71269945 4.66055264 7 7 C6 8 6 8 2.9375 8.0625 C1.968125 8.041875 0.99875 8.02125 0 8 C0 5.36 0 2.72 0 0 Z " fill="#B9B9B9" transform="translate(371,260)"/>
<path d="M0 0 C3.875 0.875 3.875 0.875 5 2 C5.33 1.34 5.66 0.68 6 0 C6.66 0 7.32 0 8 0 C8 2.64 8 5.28 8 8 C6.35 6.68 4.7 5.36 3 4 C3 5.32 3 6.64 3 8 C2.01 8 1.02 8 0 8 C0 5.36 0 2.72 0 0 Z " fill="#D3D3D3" transform="translate(433,260)"/>
<path d="M0 0 C7.48765844 -0.3682455 7.48765844 -0.3682455 10 1.4375 C11 3 11 3 11 4 C6.71 4 2.42 4 -2 4 C-1.34 2.68 -0.68 1.36 0 0 Z " fill="#060606" transform="translate(455,222)"/>
<path d="M0 0 C4 4.625 4 4.625 4 8 C1.36 8 -1.28 8 -4 8 C-3.50168276 4.31245243 -2.89932357 2.39509338 0 0 Z " fill="#ACACAC" transform="translate(423,260)"/>
<path d="M0 0 C2.31 0 4.62 0 7 0 C5.68 0.33 4.36 0.66 3 1 C3 1.66 3 2.32 3 3 C3.99 3.33 4.98 3.66 6 4 C5.01 4 4.02 4 3 4 C3 4.66 3 5.32 3 6 C4.32 6 5.64 6 7 6 C7 6.66 7 7.32 7 8 C4.69 8 2.38 8 0 8 C0 5.36 0 2.72 0 0 Z " fill="#BEBEBE" transform="translate(384,260)"/>
<path d="M0 0 C1.65 0 3.3 0 5 0 C5 0.66 5 1.32 5 2 C4.01 2.33 3.02 2.66 2 3 C3.32 3.33 4.64 3.66 6 4 C5.67 5.32 5.34 6.64 5 8 C3.35 8 1.7 8 0 8 C0 5.36 0 2.72 0 0 Z " fill="#CCCCCC" transform="translate(473,260)"/>
<path d="M0 0 C0.66 0 1.32 0 2 0 C2.33 1.65 2.66 3.3 3 5 C3.33 5 3.66 5 4 5 C4.33 3.35 4.66 1.7 5 0 C5.66 0 6.32 0 7 0 C7.04241723 2.33294775 7.04092937 4.66702567 7 7 C6 8 6 8 3.4375 8.0625 C2.633125 8.041875 1.82875 8.02125 1 8 C-0.35439668 5.29120665 -0.06501451 2.99066732 0 0 Z " fill="#DBDBDB" transform="translate(498,260)"/>
<path d="M0 0 C2.475 0.99 2.475 0.99 5 2 C5 1.34 5 0.68 5 0 C5.99 0.33 6.98 0.66 8 1 C7.01 3.31 6.02 5.62 5 8 C4.01 8 3.02 8 2 8 C1.34 5.36 0.68 2.72 0 0 Z " fill="#C7C7C7" transform="translate(526,260)"/>
<path d="M0 0 C0.33 0 0.66 0 1 0 C1 6.27 1 12.54 1 19 C1.66 19 2.32 19 3 19 C3 19.66 3 20.32 3 21 C1.35 21 -0.3 21 -2 21 C-2 20.01 -2 19.02 -2 18 C-1.34 18 -0.68 18 0 18 C0 12.06 0 6.12 0 0 Z " fill="#00F5F5" transform="translate(349,228)"/>
<path d="M0 0 C0.99 0.33 1.98 0.66 3 1 C3 3.31 3 5.62 3 8 C2.34 7.67 1.68 7.34 1 7 C0.34 7.66 -0.32 8.32 -1 9 C-0.67 6.03 -0.34 3.06 0 0 Z " fill="#00B2B7" transform="translate(348,249)"/>
<path d="M0 0 C1.98 0 3.96 0 6 0 C5.01 0.495 5.01 0.495 4 1 C4 3.31 4 5.62 4 8 C3.34 8 2.68 8 2 8 C1.34 5.36 0.68 2.72 0 0 Z " fill="#E4E4E4" transform="translate(398,260)"/>
<path d="M0 0 C4 4.625 4 4.625 4 8 C3.34 8 2.68 8 2 8 C1.67 6.35 1.34 4.7 1 3 C0.34 3 -0.32 3 -1 3 C-0.67 2.01 -0.34 1.02 0 0 Z " fill="#DCDCDC" transform="translate(423,260)"/>
</svg>
